<svg width="25" height="24" viewBox="0 0 25 24" fill="none" xmlns="http://www.w3.org/2000/svg">
<path d="M17.4 12C17.4 11.184 17.328 10.392 17.232 9.6H21.288C21.48 10.368 21.6 11.172 21.6 12C21.6 12.444 21.564 12.876 21.504 13.296C22.332 13.416 23.1 13.68 23.808 14.064C23.928 13.392 24 12.708 24 12C24 5.4 18.6 0 12 0C5.364 0 0 5.4 0 12C0 18.6 5.4 24 12 24C12.708 24 13.392 23.928 14.064 23.808C13.494 22.7627 13.1969 21.5906 13.2 20.4C13.2 20.052 13.236 19.716 13.284 19.38C12.9 20.136 12.48 20.868 12 21.552C11.004 20.112 10.2 18.516 9.708 16.8H14.172C14.8927 15.5476 15.9764 14.5434 17.28 13.92C17.352 13.284 17.4 12.648 17.4 12ZM12 2.436C12.996 3.876 13.8 5.484 14.292 7.2H9.708C10.2 5.484 11.004 3.876 12 2.436ZM2.712 14.4C2.52 13.632 2.4 12.828 2.4 12C2.4 11.172 2.52 10.368 2.712 9.6H6.768C6.672 10.392 6.6 11.184 6.6 12C6.6 12.816 6.672 13.608 6.768 14.4H2.712ZM3.696 16.8H7.2C7.62 18.3 8.16 19.74 8.88 21.072C6.69435 20.318 4.85382 18.8013 3.696 16.8ZM7.2 7.2H3.696C4.84663 5.19266 6.68975 3.67378 8.88 2.928C8.16 4.26 7.62 5.7 7.2 7.2ZM14.808 14.4H9.192C9.072 13.608 9 12.816 9 12C9 11.184 9.072 10.38 9.192 9.6H14.808C14.916 10.38 15 11.184 15 12C15 12.816 14.916 13.608 14.808 14.4ZM15.108 2.928C17.316 3.684 19.152 5.208 20.304 7.2H16.764C16.3884 5.71375 15.8323 4.27908 15.108 2.928ZM24.6 18.3L18.9 24L15.6 20.4L16.992 19.008L18.9 20.916L23.208 16.608L24.6 18.3Z" fill="#13293B"/>
</svg>
