<svg width="47" height="40" viewBox="0 0 47 40" fill="none" xmlns="http://www.w3.org/2000/svg">
<path fill-rule="evenodd" clip-rule="evenodd" d="M46.0377 14.2857C46.0377 13.528 45.7346 12.8012 45.195 12.2654C44.6554 11.7296 43.9235 11.4286 43.1604 11.4286H13.5006C12.7374 11.4286 12.0056 11.7296 11.4659 12.2654C10.9263 12.8012 10.6232 13.528 10.6232 14.2857C10.6232 15.0435 10.9263 15.7702 11.4659 16.306C12.0056 16.8418 12.7374 17.1429 13.5006 17.1429H43.1604C43.9235 17.1429 44.6554 16.8418 45.195 16.306C45.7346 15.7702 46.0377 15.0435 46.0377 14.2857ZM46.0377 2.85714C46.0377 2.09938 45.7346 1.37266 45.195 0.836838C44.6554 0.301019 43.9235 0 43.1604 0H2.87734C2.11422 0 1.38235 0.301019 0.842741 0.836838C0.303132 1.37266 -1.52588e-05 2.09938 -1.52588e-05 2.85714C-1.52588e-05 3.6149 0.303132 4.34163 0.842741 4.87745C1.38235 5.41327 2.11422 5.71429 2.87734 5.71429H43.1604C43.9235 5.71429 44.6554 5.41327 45.195 4.87745C45.7346 4.34163 46.0377 3.6149 46.0377 2.85714ZM46.0377 25.7143C46.0377 24.9565 45.7346 24.2298 45.195 23.694C44.6554 23.1582 43.9235 22.8571 43.1604 22.8571H2.87734C2.11422 22.8571 1.38235 23.1582 0.842741 23.694C0.303132 24.2298 -1.52588e-05 24.9565 -1.52588e-05 25.7143C-1.52588e-05 26.472 0.303132 27.1988 0.842741 27.7346C1.38235 28.2704 2.11422 28.5714 2.87734 28.5714H43.1604C43.9235 28.5714 44.6554 28.2704 45.195 27.7346C45.7346 27.1988 46.0377 26.472 46.0377 25.7143ZM46.0377 37.1429C46.0377 36.3851 45.7346 35.6584 45.195 35.1226C44.6554 34.5867 43.9235 34.2857 43.1604 34.2857H13.5006C12.7374 34.2857 12.0056 34.5867 11.4659 35.1226C10.9263 35.6584 10.6232 36.3851 10.6232 37.1429C10.6232 37.9006 10.9263 38.6273 11.4659 39.1632C12.0056 39.699 12.7374 40 13.5006 40H43.1604C43.9235 40 44.6554 39.699 45.195 39.1632C45.7346 38.6273 46.0377 37.9006 46.0377 37.1429Z" fill="#0F172A"/>
</svg>
