<svg width="380" height="68" viewBox="0 0 380 68" fill="none" xmlns="http://www.w3.org/2000/svg">
<path d="M101.6 53H93.2V17.3H113.95V24.2H101.6V32.3H113.05V39.2H101.6V53ZM132.097 25C135.664 25 138.431 25.8333 140.397 27.5C142.364 29.1333 143.347 31.5667 143.347 34.8V53H137.497L135.847 49.3H135.647C134.881 50.2667 134.081 51.0667 133.247 51.7C132.447 52.3333 131.514 52.7833 130.447 53.05C129.414 53.35 128.131 53.5 126.597 53.5C124.997 53.5 123.547 53.1833 122.247 52.55C120.981 51.9167 119.981 50.95 119.247 49.65C118.514 48.35 118.147 46.7 118.147 44.7C118.147 41.7667 119.164 39.6 121.197 38.2C123.264 36.8 126.281 36.0167 130.247 35.85L134.947 35.7V34.9C134.947 33.5667 134.597 32.6 133.897 32C133.231 31.4 132.297 31.1 131.097 31.1C129.897 31.1 128.647 31.3 127.347 31.7C126.047 32.0667 124.731 32.5333 123.397 33.1L120.847 27.5C122.347 26.7 124.047 26.0833 125.947 25.65C127.847 25.2167 129.897 25 132.097 25ZM132.397 40.6C130.297 40.6667 128.831 41.05 127.997 41.75C127.164 42.4167 126.747 43.3333 126.747 44.5C126.747 45.5333 127.047 46.2833 127.647 46.75C128.247 47.2167 129.014 47.45 129.947 47.45C131.347 47.45 132.531 47.0333 133.497 46.2C134.464 45.3333 134.947 44.1667 134.947 42.7V40.5L132.397 40.6ZM166.411 25.05C166.845 25.05 167.328 25.0833 167.861 25.15C168.395 25.1833 168.811 25.2333 169.111 25.3L168.411 33.2C168.111 33.1333 167.728 33.0833 167.261 33.05C166.795 32.9833 166.278 32.95 165.711 32.95C164.911 32.95 164.111 33.05 163.311 33.25C162.511 33.4167 161.778 33.7333 161.111 34.2C160.445 34.6333 159.911 35.2667 159.511 36.1C159.111 36.9 158.911 37.95 158.911 39.25V53H150.461V25.55H156.811L158.111 30.05H158.461C158.995 29.1167 159.661 28.2833 160.461 27.55C161.261 26.7833 162.161 26.1833 163.161 25.75C164.195 25.2833 165.278 25.05 166.411 25.05ZM181.958 25.55V53H173.558V25.55H181.958ZM177.808 14.65C179.008 14.65 180.058 14.9167 180.958 15.45C181.858 15.9833 182.308 17.0167 182.308 18.55C182.308 20.05 181.858 21.0833 180.958 21.65C180.058 22.1833 179.008 22.45 177.808 22.45C176.542 22.45 175.458 22.1833 174.558 21.65C173.692 21.0833 173.258 20.05 173.258 18.55C173.258 17.0167 173.692 15.9833 174.558 15.45C175.458 14.9167 176.542 14.65 177.808 14.65ZM197.881 53.5C194.948 53.5 192.531 52.3 190.631 49.9C188.764 47.5 187.831 43.9667 187.831 39.3C187.831 34.6 188.781 31.05 190.681 28.65C192.581 26.25 195.064 25.05 198.131 25.05C199.398 25.05 200.514 25.2333 201.481 25.6C202.448 25.9333 203.264 26.4 203.931 27C204.631 27.6 205.231 28.2833 205.731 29.05H205.931C205.831 28.45 205.714 27.6 205.581 26.5C205.481 25.3667 205.431 24.25 205.431 23.15V15H213.881V53H207.481L205.781 49.45H205.431C204.998 50.1833 204.431 50.8667 203.731 51.5C203.031 52.1 202.198 52.5833 201.231 52.95C200.298 53.3167 199.181 53.5 197.881 53.5ZM201.081 46.8C202.914 46.8 204.198 46.25 204.931 45.15C205.664 44.05 206.048 42.3833 206.081 40.15V39.4C206.081 36.9667 205.714 35.1 204.981 33.8C204.281 32.5 202.948 31.85 200.981 31.85C199.581 31.85 198.448 32.4833 197.581 33.75C196.748 35.0167 196.331 36.9167 196.331 39.45C196.331 41.95 196.748 43.8 197.581 45C198.448 46.2 199.614 46.8 201.081 46.8ZM251.266 53H241.566L233.316 38.6L230.266 40.6V53H221.716V17.3H230.266V33.25C230.699 32.5167 231.166 31.7833 231.666 31.05C232.199 30.3167 232.716 29.6 233.216 28.9L241.916 17.3H251.266L239.366 33.2L251.266 53ZM263.306 21.65C263.306 23.3167 263.256 24.8167 263.156 26.15C263.056 27.45 262.973 28.4 262.906 29H263.356C263.956 28.0333 264.639 27.2667 265.406 26.7C266.173 26.1333 267.039 25.7167 268.006 25.45C268.973 25.1833 270.006 25.05 271.106 25.05C273.006 25.05 274.689 25.4 276.156 26.1C277.623 26.8 278.773 27.8833 279.606 29.35C280.473 30.8167 280.906 32.7333 280.906 35.1V53H272.456V37.45C272.456 35.5167 272.139 34.0833 271.506 33.15C270.906 32.1833 269.923 31.7 268.556 31.7C267.223 31.7 266.173 32.05 265.406 32.75C264.639 33.4167 264.089 34.4 263.756 35.7C263.456 37 263.306 38.6 263.306 40.5V53H254.856V15H263.306V21.65ZM300.31 25C303.877 25 306.643 25.8333 308.61 27.5C310.577 29.1333 311.56 31.5667 311.56 34.8V53H305.71L304.06 49.3H303.86C303.093 50.2667 302.293 51.0667 301.46 51.7C300.66 52.3333 299.727 52.7833 298.66 53.05C297.627 53.35 296.343 53.5 294.81 53.5C293.21 53.5 291.76 53.1833 290.46 52.55C289.193 51.9167 288.193 50.95 287.46 49.65C286.727 48.35 286.36 46.7 286.36 44.7C286.36 41.7667 287.377 39.6 289.41 38.2C291.477 36.8 294.493 36.0167 298.46 35.85L303.16 35.7V34.9C303.16 33.5667 302.81 32.6 302.11 32C301.443 31.4 300.51 31.1 299.31 31.1C298.11 31.1 296.86 31.3 295.56 31.7C294.26 32.0667 292.943 32.5333 291.61 33.1L289.06 27.5C290.56 26.7 292.26 26.0833 294.16 25.65C296.06 25.2167 298.11 25 300.31 25ZM300.61 40.6C298.51 40.6667 297.043 41.05 296.21 41.75C295.377 42.4167 294.96 43.3333 294.96 44.5C294.96 45.5333 295.26 46.2833 295.86 46.75C296.46 47.2167 297.227 47.45 298.16 47.45C299.56 47.45 300.743 47.0333 301.71 46.2C302.677 45.3333 303.16 44.1667 303.16 42.7V40.5L300.61 40.6ZM334.624 25.05C335.058 25.05 335.541 25.0833 336.074 25.15C336.608 25.1833 337.024 25.2333 337.324 25.3L336.624 33.2C336.324 33.1333 335.941 33.0833 335.474 33.05C335.008 32.9833 334.491 32.95 333.924 32.95C333.124 32.95 332.324 33.05 331.524 33.25C330.724 33.4167 329.991 33.7333 329.324 34.2C328.658 34.6333 328.124 35.2667 327.724 36.1C327.324 36.9 327.124 37.95 327.124 39.25V53H318.674V25.55H325.024L326.324 30.05H326.674C327.208 29.1167 327.874 28.2833 328.674 27.55C329.474 26.7833 330.374 26.1833 331.374 25.75C332.408 25.2833 333.491 25.05 334.624 25.05ZM350.171 25.55V53H341.771V25.55H350.171ZM346.021 14.65C347.221 14.65 348.271 14.9167 349.171 15.45C350.071 15.9833 350.521 17.0167 350.521 18.55C350.521 20.05 350.071 21.0833 349.171 21.65C348.271 22.1833 347.221 22.45 346.021 22.45C344.754 22.45 343.671 22.1833 342.771 21.65C341.904 21.0833 341.471 20.05 341.471 18.55C341.471 17.0167 341.904 15.9833 342.771 15.45C343.671 14.9167 344.754 14.65 346.021 14.65ZM377.194 44.7C377.194 46.5 376.777 48.0667 375.944 49.4C375.144 50.7 373.877 51.7167 372.144 52.45C370.41 53.15 368.21 53.5 365.544 53.5C363.61 53.5 361.91 53.3833 360.444 53.15C359.01 52.9167 357.56 52.5 356.094 51.9V45.1C357.694 45.8 359.36 46.35 361.094 46.75C362.86 47.15 364.327 47.35 365.494 47.35C366.76 47.35 367.677 47.1833 368.244 46.85C368.81 46.5167 369.094 46.05 369.094 45.45C369.094 45.0167 368.944 44.6333 368.644 44.3C368.377 43.9667 367.81 43.5833 366.944 43.15C366.11 42.7167 364.86 42.1667 363.194 41.5C361.56 40.8 360.21 40.0833 359.144 39.35C358.11 38.6167 357.327 37.7333 356.794 36.7C356.294 35.6667 356.044 34.4 356.044 32.9C356.044 30.3 357.044 28.35 359.044 27.05C361.077 25.7167 363.76 25.05 367.094 25.05C368.86 25.05 370.527 25.2333 372.094 25.6C373.66 25.9667 375.277 26.5333 376.944 27.3L374.544 33C373.644 32.6 372.744 32.25 371.844 31.95C370.977 31.65 370.144 31.4167 369.344 31.25C368.544 31.0833 367.794 31 367.094 31C366.16 31 365.444 31.1333 364.944 31.4C364.444 31.6333 364.194 32 364.194 32.5C364.194 32.8667 364.327 33.2167 364.594 33.55C364.894 33.85 365.444 34.1833 366.244 34.55C367.077 34.9167 368.277 35.4333 369.844 36.1C371.41 36.7333 372.744 37.4 373.844 38.1C374.944 38.8 375.777 39.6667 376.344 40.7C376.91 41.7333 377.194 43.0667 377.194 44.7Z" fill="#0D202E"/>
<path d="M0 22V2H39.0865L28 18H16V22H0Z" fill="#0D202E"/>
<path d="M0 57.9999V26H24V38H16L16 58L0 57.9999Z" fill="#0D202E"/>
<path d="M28 42V34L44 10H64L45.2 38L64 65.9999L44 66L28 42Z" fill="#0D202E"/>
</svg>
